<?xml version="1.0" encoding="UTF-8"?>
<svg version="1.1" xmlns="http://www.w3.org/2000/svg" width="500" height="500">
<path d="M0 0 C165 0 330 0 500 0 C500 165 500 330 500 500 C335 500 170 500 0 500 C0 335 0 170 0 0 Z " fill="#FEFEFE" transform="translate(0,0)"/>
<path d="M0 0 C165 0 330 0 500 0 C500 165 500 330 500 500 C335 500 170 500 0 500 C0 335 0 170 0 0 Z M31 32 C31 175.88 31 319.76 31 468 C175.54 468 320.08 468 469 468 C469 324.12 469 180.24 469 32 C324.46 32 179.92 32 31 32 Z " fill="#000000" transform="translate(0,0)"/>
<path d="M0 0 C152.46 0 304.92 0 462 0 C462 5.28 462 10.56 462 16 C314.16 16 166.32 16 14 16 C14 163.18 14 310.36 14 462 C9.38 462 4.76 462 0 462 C0 309.54 0 157.08 0 0 Z " fill="#FEFEFE" transform="translate(8,7)"/>
<path d="M0 0 C4.62 0 9.24 0 14 0 C14 152.13 14 304.26 14 461 C-138.13 461 -290.26 461 -447 461 C-447 455.72 -447 450.44 -447 445 C-299.49 445 -151.98 445 0 445 C0 298.15 0 151.3 0 0 Z " fill="#FFFFFF" transform="translate(478,32)"/>
<path d="M0 0 C7.26 0 14.52 0 22 0 C22 165 22 330 22 500 C-143 500 -308 500 -478 500 C-478 492.41 -478 484.82 -478 477 C-470.41 477 -462.82 477 -455 477 C-455 482.28 -455 487.56 -455 493 C-452.69 493 -450.38 493 -448 493 C-448 487.39 -448 481.78 -448 476 C-303.13 476 -158.26 476 -9 476 C-9 473.69 -9 471.38 -9 469 C-153.87 469 -298.74 469 -448 469 C-448 324.79 -448 180.58 -448 32 C-447.67 32 -447.34 32 -447 32 C-447 175.88 -447 319.76 -447 468 C-302.46 468 -157.92 468 -9 468 C-9 324.12 -9 180.24 -9 32 C-8.67 32 -8.34 32 -8 32 C-8 178.52 -8 325.04 -8 476 C-5.36 476 -2.72 476 0 476 C0 476.33 0 476.66 0 477 C-147.51 477 -295.02 477 -447 477 C-447 482.28 -447 487.56 -447 493 C-294.87 493 -142.74 493 14 493 C14 340.87 14 188.74 14 32 C9.38 32 4.76 32 0 32 C0 31.67 0 31.34 0 31 C4.62 31 9.24 31 14 31 C14 28.69 14 26.38 14 24 C9.38 24 4.76 24 0 24 C0 16.08 0 8.16 0 0 Z " fill="#8A8A8A" transform="translate(478,0)"/>
<path d="M0 0 C2.64 0 5.28 0 8 0 C8 7.92 8 15.84 8 24 C12.62 24 17.24 24 22 24 C22 26.31 22 28.62 22 31 C17.38 31 12.76 31 8 31 C8 177.85 8 324.7 8 476 C5.36 476 2.72 476 0 476 C0 329.48 0 182.96 0 32 C-147.51 32 -295.02 32 -447 32 C-447 176.21 -447 320.42 -447 469 C-447.33 469 -447.66 469 -448 469 C-448 321.82 -448 174.64 -448 23 C-300.16 23 -152.32 23 0 23 C0 15.41 0 7.82 0 0 Z " fill="#0C0C0C" transform="translate(470,0)"/>
<path d="M0 0 C2.31 0 4.62 0 7 0 C7 152.13 7 304.26 7 461 C4.69 461 2.38 461 0 461 C0 308.87 0 156.74 0 0 Z " fill="#000000" transform="translate(493,32)"/>
<path d="M0 0 C152.13 0 304.26 0 461 0 C461 1.98 461 3.96 461 6 C308.87 6 156.74 6 0 6 C0 4.02 0 2.04 0 0 Z " fill="#000000" transform="translate(31,494)"/>
<path d="M0 0 C5.00612964 3.11221777 9.18865662 7.95666659 11.375 13.4375 C12.32883109 22.22017847 11.41232618 28.77397276 5.875 35.75 C3.375 38.4375 3.375 38.4375 0.375 40.4375 C-0.615 40.4375 -1.605 40.4375 -2.625 40.4375 C-1.58931405 42.14485301 -1.58931405 42.14485301 0.375 43.4375 C3.84986472 43.17926007 3.84986472 43.17926007 7.375 42.4375 C8.695 42.4375 10.015 42.4375 11.375 42.4375 C12.035 44.4175 12.695 46.3975 13.375 48.4375 C8.45113223 52.34263651 4.35080822 52.89209037 -1.82421875 52.859375 C-6.28970395 52.18674961 -8.79824146 49.82466549 -11.625 46.4375 C-12.285 45.4475 -12.945 44.4575 -13.625 43.4375 C-15.61255275 42.78661229 -15.61255275 42.78661229 -17.875 42.5 C-25.14043125 41.06787173 -29.35502085 37.24941606 -33.625 31.4375 C-36.81059522 24.83321722 -36.45534251 17.60318084 -34.625 10.625 C-27.29052393 -1.06432123 -12.9307475 -5.86160344 0 0 Z " fill="#040404" transform="translate(249.625,124.5625)"/>
<path d="M0 0 C6.29090999 3.88162531 10.75477105 7.64241831 12.9375 14.8125 C14.0460292 21.73303745 13.03796981 27.45782223 9.63671875 33.578125 C6.13683317 38.18027339 1.36696075 41.00267975 -4.0625 42.8125 C-19.29815212 44.07761939 -19.29815212 44.07761939 -25.41796875 39.37109375 C-31.20498328 33.88648853 -35.00272457 29.31091863 -35.5 21.125 C-35.32877861 14.36679103 -32.96434026 8.59578258 -28.0546875 3.88671875 C-20.47191424 -1.97524065 -9.12737387 -3.64682884 0 0 Z " fill="#060606" transform="translate(148.0625,124.1875)"/>
<path d="M0 0 C4.99446713 3.1049674 9.21439578 7.95812984 11.375 13.4375 C12.24594983 20.16223767 12.52555696 26.61851777 8.8125 32.5 C5.03510081 37.29542166 0.54563785 41.3409755 -5.625 42.4375 C-20.88912488 43.66847781 -20.88912488 43.66847781 -27.046875 38.9296875 C-31.74180752 34.49041962 -35.22976744 30.20504155 -35.92578125 23.5703125 C-35.95303052 16.57633353 -35.9154153 10.84667763 -30.78515625 5.53125 C-22.44996628 -2.04337329 -10.82317767 -4.90622645 0 0 Z " fill="#040404" transform="translate(265.625,187.5625)"/>
<path d="M0 0 C4.455 -0.103125 8.91 -0.20625 13.5 -0.3125 C15.58344727 -0.38078003 15.58344727 -0.38078003 17.70898438 -0.45043945 C24.97540658 -0.5316783 30.55503931 -0.20152723 36 5 C37.6124054 8.22481079 37.60679502 11.51415624 37 15 C35.56130936 17.39446415 33.99797988 19.00202012 32 21 C32.969375 21.78375 33.93875 22.5675 34.9375 23.375 C36.83962346 24.91288705 37.89629957 25.79259913 39 28 C39.27046812 31.58370253 39.25938588 34.30290045 38 37.6875 C34.30890299 41.95533092 30.24868294 43.77972154 24.72265625 44.32104492 C20.97203959 44.39295866 17.25035062 44.34832706 13.5 44.25 C9.045 44.1675 4.59 44.085 0 44 C0 29.48 0 14.96 0 0 Z " fill="#060606" transform="translate(187,186)"/>
<path d="M0 0 C10 0 10 0 12.59375 1.9140625 C13.2228125 2.80867188 13.851875 3.70328125 14.5 4.625 C15.22058594 5.61371094 15.94117188 6.60242188 16.68359375 7.62109375 C17.05339355 8.1610498 17.42319336 8.70100586 17.80419922 9.25732422 C19.09952428 11.14503967 20.43781823 12.99674428 21.78515625 14.84765625 C24.2299168 18.20624183 26.60964503 21.59963589 29 25 C29.33 16.75 29.66 8.5 30 0 C33.63 0 37.26 0 41 0 C41 14.52 41 29.04 41 44 C30 44 30 44 27.54541016 42.36694336 C27.04831543 41.61550049 26.5512207 40.86405762 26.0390625 40.08984375 C25.46542969 39.26419922 24.89179688 38.43855469 24.30078125 37.58789062 C23.74777344 36.71326172 23.19476563 35.83863281 22.625 34.9375 C22.04878906 34.08994141 21.47257812 33.24238281 20.87890625 32.36914062 C19.79499776 30.77043733 18.72599404 29.16143507 17.67822266 27.53881836 C15.53786967 24.30088837 13.25602059 21.15842882 11 18 C10.67 26.58 10.34 35.16 10 44 C6.7 44 3.4 44 0 44 C0 29.48 0 14.96 0 0 Z " fill="#050505" transform="translate(167,123)"/>
<path d="M0 0 C11.55 0 23.1 0 35 0 C35 2.97 35 5.94 35 9 C27.41 9 19.82 9 12 9 C12 11.64 12 14.28 12 17 C18.93 17 25.86 17 33 17 C33 19.97 33 22.94 33 26 C26.07 26 19.14 26 12 26 C12 28.97 12 31.94 12 35 C19.92 35 27.84 35 36 35 C36 37.97 36 40.94 36 44 C24.12 44 12.24 44 0 44 C0 29.48 0 14.96 0 0 Z " fill="#0B0B0B" transform="translate(406,123)"/>
<path d="M0 0 C7.26 0 14.52 0 22 0 C22 10.56 22 21.12 22 32 C19.69 32 17.38 32 15 32 C15 184.13 15 336.26 15 493 C17.31 493 19.62 493 22 493 C22 495.31 22 497.62 22 500 C19.36 500 16.72 500 14 500 C14 345.56 14 191.12 14 32 C9.38 32 4.76 32 0 32 C0 31.67 0 31.34 0 31 C4.62 31 9.24 31 14 31 C14 28.69 14 26.38 14 24 C9.38 24 4.76 24 0 24 C0 16.08 0 8.16 0 0 Z " fill="#2B2B2B" transform="translate(478,0)"/>
<path d="M0 0 C3.63 0 7.26 0 11 0 C11.01458252 0.82201904 11.02916504 1.64403809 11.04418945 2.4909668 C11.11876333 6.22361323 11.21539512 9.95537459 11.3125 13.6875 C11.33505859 14.98107422 11.35761719 16.27464844 11.38085938 17.60742188 C11.41630859 18.85458984 11.45175781 20.10175781 11.48828125 21.38671875 C11.51446533 22.53358154 11.54064941 23.68044434 11.56762695 24.86206055 C12.08123454 28.58955818 13.31660959 31.31660959 16 34 C21.43275962 34.68013016 21.43275962 34.68013016 26.09350586 32.40795898 C28.64029198 29.19129212 28.54033138 27.12044866 28.609375 23.046875 C28.62591125 22.38665344 28.64244751 21.72643188 28.65948486 21.04620361 C28.70788451 18.94737374 28.72931519 16.84926778 28.75 14.75 C28.77816683 13.3228804 28.80809528 11.89579441 28.83984375 10.46875 C28.91363763 6.97932391 28.96326279 3.49003528 29 0 C32.63 0 36.26 0 40 0 C40.1493692 4.55307955 40.25768452 9.10470518 40.32958984 13.65966797 C40.35959028 15.2058194 40.40040631 16.75180311 40.45263672 18.29736328 C40.96286995 33.79444725 40.96286995 33.79444725 35.58618164 39.65234375 C29.51436784 44.81109582 23.33218824 44.37770438 15.62109375 44.49609375 C10.27783144 43.76406105 6.52463741 41.122873 3.1875 36.9375 C-0.13629341 32.47412028 -0.11987301 29.36888623 -0.09765625 23.92578125 C-0.0962413 23.2419487 -0.09482635 22.55811615 -0.09336853 21.8535614 C-0.08777876 19.67316278 -0.07522822 17.49286749 -0.0625 15.3125 C-0.05748367 13.83268378 -0.052921 12.35286594 -0.04882812 10.87304688 C-0.03781271 7.24866443 -0.02055512 3.6243423 0 0 Z " fill="#030303" transform="translate(267,123)"/>
<path d="M0 0 C0.99 0.66 1.98 1.32 3 2 C2.01 4.97 1.02 7.94 0 11 C-1.32 10.525625 -2.64 10.05125 -4 9.5625 C-8.3787637 8.1029121 -12.39592495 7.32309299 -17 7 C-17.99 7.495 -17.99 7.495 -19 8 C-18.90171722 9.95781201 -18.90171722 9.95781201 -18 12 C-15.66502562 13.26082398 -15.66502562 13.26082398 -12.8125 14.0625 C-11.81605469 14.39636719 -10.81960938 14.73023438 -9.79296875 15.07421875 C-8.41044922 15.53248047 -8.41044922 15.53248047 -7 16 C-1.91653244 18.07104234 0.96844627 20.36350606 4 25 C4.70006441 29.35595632 4.34418399 31.36080116 2.25 35.25 C-1.77687781 40.17173955 -4.79564474 41.67378342 -11.03125 42.30859375 C-20.17998814 42.64858064 -26.22569583 40.78418718 -34 36 C-31.94642857 29.41071429 -31.94642857 29.41071429 -29 27 C-27.9275 27.639375 -26.855 28.27875 -25.75 28.9375 C-20.30804074 32.01150094 -16.19670901 32.10327848 -10 32 C-9.3185177 30.10820797 -9.3185177 30.10820797 -9 28 C-12.05360207 24.94639793 -16.23090867 24.31128263 -20.32617188 23.20703125 C-25.57195258 21.61928753 -27.95892874 19.59334482 -31 15 C-31.88676653 11.87023577 -31.69833787 9.16806936 -31 6 C-24.01966127 -5.42237247 -11.00637187 -4.90672611 0 0 Z " fill="#060606" transform="translate(334,188)"/>
<path d="M0 0 C8.58 0 17.16 0 26 0 C26.06907349 4.73281335 26.12874284 9.46386056 26.16479492 14.19677734 C26.17983176 15.80491072 26.20026672 17.41300344 26.22631836 19.02099609 C26.26292822 21.33962064 26.27977722 23.65770049 26.29296875 25.9765625 C26.30845261 26.68930328 26.32393646 27.40204407 26.33988953 28.13638306 C26.34145907 32.84829036 25.46677098 35.99449888 23 40 C19.18866606 43.81133394 15.83067613 44.33957174 10.625 44.5625 C4.52743821 44.40185404 0.63145579 42.9178478 -4 39 C-3.5206753 34.68607774 -2.2542015 32.83430453 1 30 C1.886875 30.66 2.77375 31.32 3.6875 32 C6.97506886 33.98494724 8.28458576 34.61923571 12 34 C14.56136221 31.43863779 14.29666857 30.33438669 14.4140625 26.7734375 C14.45273438 25.7421875 14.49140625 24.7109375 14.53125 23.6484375 C14.5621875 22.56820312 14.593125 21.48796875 14.625 20.375 C14.66367188 19.28703125 14.70234375 18.1990625 14.7421875 17.078125 C14.83665846 14.38570255 14.91942581 11.69287416 15 9 C10.05 9 5.1 9 0 9 C0 6.03 0 3.06 0 0 Z " fill="#040404" transform="translate(82,123)"/>
<path d="M0 0 C3.63 0 7.26 0 11 0 C11 11.22 11 22.44 11 34 C17.27 34 23.54 34 30 34 C30 37.3 30 40.6 30 44 C20.1 44 10.2 44 0 44 C0 29.48 0 14.96 0 0 Z " fill="#060606" transform="translate(336,123)"/>
<path d="M0 0 C3.63 0 7.26 0 11 0 C11 11.55 11 23.1 11 35 C17.27 35 23.54 35 30 35 C30 37.97 30 40.94 30 44 C20.1 44 10.2 44 0 44 C0 29.48 0 14.96 0 0 Z " fill="#000000" transform="translate(371,123)"/>
<path d="M0 0 C4.36350222 2.22291622 7.09544338 4.45022584 9 9 C9.56872801 14.21334006 8.9156441 17.62653385 6 22 C2.15589385 25.39711706 -0.98994554 26.72395886 -6.0390625 26.453125 C-9.71286627 25.60419823 -11.43611925 23.74701509 -14 21 C-16.28466838 17.05375462 -16.47409741 13.50392543 -16 9 C-12.1859468 1.91675834 -8.28662812 -1.43698754 0 0 Z " fill="#F9F9F9" transform="translate(257,195)"/>
<path d="M0 0 C4.36350222 2.22291622 7.09544338 4.45022584 9 9 C9.56872801 14.21334006 8.9156441 17.62653385 6 22 C2.15589385 25.39711706 -0.98994554 26.72395886 -6.0390625 26.453125 C-9.71286627 25.60419823 -11.43611925 23.74701509 -14 21 C-16.28466838 17.05375462 -16.47409741 13.50392543 -16 9 C-12.1859468 1.91675834 -8.28662812 -1.43698754 0 0 Z " fill="#F9F9F9" transform="translate(241,132)"/>
<path d="M0 0 C3.75212276 2.01502889 5.63644095 3.45466142 8 7 C8.71238425 12.27661359 8.60243219 16.72819871 6.3125 21.5625 C2.89191993 25.16797629 0.46715589 25.78264357 -4.375 26.5 C-9.19606272 25.83502583 -11.85889115 23.64688062 -15 20 C-16.36439276 15.90682172 -16.77052642 12.26970603 -16 8 C-12.04922141 1.43562941 -7.73537436 -1.06397342 0 0 Z " fill="#FAFAFA" transform="translate(141,132)"/>
<path d="M0 0 C7.26 0 14.52 0 22 0 C22 7.59 22 15.18 22 23 C14.74 23 7.48 23 0 23 C0 15.41 0 7.82 0 0 Z " fill="#FFFFFF" transform="translate(0,477)"/>
<path d="M0 0 C7.26 0 14.52 0 22 0 C22 7.59 22 15.18 22 23 C14.74 23 7.48 23 0 23 C0 15.41 0 7.82 0 0 Z " fill="#FFFFFF" transform="translate(478,0)"/>
<path d="M0 0 C2.64 0 5.28 0 8 0 C8 2.31 8 4.62 8 7 C152.87 7 297.74 7 447 7 C447 7.33 447 7.66 447 8 C299.49 8 151.98 8 0 8 C0 5.36 0 2.72 0 0 Z " fill="#363636" transform="translate(23,24)"/>
<path d="M0 0 C3.63 0 7.26 0 11 0 C11 14.52 11 29.04 11 44 C7.37 44 3.74 44 0 44 C0 29.48 0 14.96 0 0 Z " fill="#030303" transform="translate(283,186)"/>
<path d="M0 0 C3.63 0 7.26 0 11 0 C11 14.52 11 29.04 11 44 C7.37 44 3.74 44 0 44 C0 29.48 0 14.96 0 0 Z " fill="#020202" transform="translate(316,123)"/>
<path d="M0 0 C1.93681161 -0.08107583 3.8745934 -0.13922475 5.8125 -0.1875 C6.89144531 -0.22230469 7.97039062 -0.25710937 9.08203125 -0.29296875 C12 0 12 0 13.89453125 1.3515625 C15 3 15 3 14.875 5.5625 C14 8 14 8 11 10 C8.30078125 10.1953125 8.30078125 10.1953125 5.3125 10.125 C3.82169922 10.09792969 3.82169922 10.09792969 2.30078125 10.0703125 C1.54152344 10.04710937 0.78226563 10.02390625 0 10 C0 6.7 0 3.4 0 0 Z " fill="#E1E1E1" transform="translate(198,194)"/>
<path d="M0 0 C2.12472576 -0.05386629 4.24983652 -0.09273071 6.375 -0.125 C7.55835938 -0.14820313 8.74171875 -0.17140625 9.9609375 -0.1953125 C13 0 13 0 15 2 C15.25 4.5 15.25 4.5 15 7 C13 9 13 9 9.9609375 9.1953125 C8.77757812 9.17210937 7.59421875 9.14890625 6.375 9.125 C5.18648437 9.10695312 3.99796875 9.08890625 2.7734375 9.0703125 C1.85820312 9.04710937 0.94296875 9.02390625 0 9 C0 6.03 0 3.06 0 0 Z " fill="#FBFBFB" transform="translate(199,212)"/>
<path d="M0 0 C2.31 0 4.62 0 7 0 C7 2.31 7 4.62 7 7 C4.69 7 2.38 7 0 7 C0 4.69 0 2.38 0 0 Z " fill="#000000" transform="translate(493,24)"/>
<path d="M0 0 C2.31 0 4.62 0 7 0 C7 2.31 7 4.62 7 7 C4.69 7 2.38 7 0 7 C0 4.69 0 2.38 0 0 Z " fill="#000000" transform="translate(23,24)"/>
<path d="M0 0 C2.31 0 4.62 0 7 0 C7 1.98 7 3.96 7 6 C4.69 6 2.38 6 0 6 C0 4.02 0 2.04 0 0 Z " fill="#000000" transform="translate(493,494)"/>
<path d="M0 0 C2.31 0 4.62 0 7 0 C7 1.98 7 3.96 7 6 C4.69 6 2.38 6 0 6 C0 4.02 0 2.04 0 0 Z " fill="#000000" transform="translate(23,494)"/>
</svg>
